{"title":"Tower Heist 2011 CAM XviD - VISUALiSE","uid":6814220,"size":1146137983,"categoryP":"video","categoryS":"movies","magnet":"?xt=urn:btih:2665d7f8ba5e9a7d82baa5609dfefedc1cf9bca8&amp;dn=Tower+Heist+2011+CAM+XviD+-+VISUALiSE&amp;tr=udp%3A%2F%2Ftracker.openbittorrent.com%3A80&amp;tr=udp%3A%2F%2Fopen.demonii.com%3A1337&amp;tr=udp%3A%2F%2Ftracker.coppersurfer.tk%3A6969&amp;tr=udp%3A%2F%2Fexodus.desync.com%3A6969","seeders":0,"leechers":0,"uploader":"TvTeam","files":4,"time":1321136478,"description":". \n &lt;a href=&quot;\nhttp://www.torrenting.com&quot; rel=&quot;nofollow&quot; target=&quot;_NEW&quot;&gt;\nhttp://www.torrenting.com&lt;/a&gt;          :     Once &amp; For all ;)\n\n\n               www . Torrenting . Com \n\n(((((((((((((= Enjoy No RAR releases =))))))))))))))))))))\n\n\n...................................NFO:....................................\n\n.[pre]\noooooo     oooo  o8o   .oooooo..o ooooo     ooo       .o.       ooooo         o8o   .oooooo..o oooooooooooo\n`888.     .8'   `&quot;'  d8P'    `Y8 `888'     `8'      .888.      `888'         `&quot;'  d8P'    `Y8 `888'     `8\n `888.   .8'   oooo  Y88bo.       888       8      .8&quot;888.      888         oooo  Y88bo.       888        \n  `888. .8'    `888   `&quot;Y8888o.   888       8     .8' `888.     888         `888   `&quot;Y8888o.   888oooo8    \n   `888.8'      888       `&quot;Y88b  888       8    .88ooo8888.    888          888       `&quot;Y88b  888    &quot;    \n    `888'       888  oo     .d8P  `88.    .8'   .8'     `888.   888       o  888  oo     .d8P  888       o\n     `8'       o888o 8&quot;&quot;88888P'     `YbodP'    o88o     o8888o o888ooooood8 o888o 8&quot;&quot;88888P'  o888ooooood8\n\n\n\n\nTitle: Tower Heist 2011 CAM XviD - VISUALiSE\nFormat: Xvid\nLanguage: English\nSubtitles: No\nImdb: http://www.imdb.com/title/tt0471042/\n\nPlot:\nWhen a group of hard working guys find out they've fallen \nvictim to a wealthy business man's Ponzi scheme, \nthey conspire to rob his high-rise residence. \n\nSources:\nVideo: HP - Many Thanks :D\nAudio: HP - Many Thanks :D\n\nRelease Notes:\nVISUALiSE Bringing you \nTower Heist 2011 CAM XviD - VISUALiSE\nThanks to HP for the source ;) ;)  \nwhich was looking nice :)\nCropped, Resized, Ran some filters and\na little sharpen then muxed the audio back \nto our encode :D :D\n\nfor those who cant be bother'd or CANT \nuse the HP files feel free to re encode this\nwe know you will :lol:\n\nenjoy. :P\n\nInfo:\n\nVideo\nID                               : 0\nFormat                           : MPEG-4 Visual\nFormat profile                   : Advanced Simple@L5\nFormat settings, BVOP            : 2\nFormat settings, QPel            : No\nFormat settings, GMC             : No warppoints\nFormat settings, Matrix          : Default (H.263)\nCodec ID                         : XVID\nCodec ID/Hint                    : XviD\nDuration                         : 1h 33mn\nBit rate                         : 1 498 Kbps\nWidth                            : 720 pixels\nHeight                           : 304 pixels\nDisplay aspect ratio             : 2.35:1\nFrame rate                       : 29.970 fps\nColor space                      : YUV\nChroma subsampling               : 4:2:0\nBit depth                        : 8 bits\nScan type                        : Progressive\nCompression mode                 : Lossy\nBits/(Pixel*Frame)               : 0.228\nStream size                      : 1 000 MiB (91%)\n\nAudio\nID                               : 1\nFormat                           : MPEG Audio\nFormat version                   : Version 1\nFormat profile                   : Layer 3\nCodec ID                         : 55\nCodec ID/Hint                    : MP3\nDuration                         : 1h 33mn\nBit rate mode                    : Constant\nBit rate                         : 128 Kbps\nChannel(s)                       : 2 channels\nSampling rate                    : 48.0 KHz\nCompression mode                 : Lossy\nStream size                      : 85.4 MiB (8%)\nAlignment                        : Aligned on interleaves\nInterleave, duration             : 33 ms (1.00 video frame)\n\n\nScreens:\n[IMG]http://i.imgur.com/bRxrG.png[/IMG]\n[IMG]http://i.imgur.com/RDHNh.png[/IMG]\n[IMG]http://i.imgur.com/MR9HV.png[/IMG]\n[IMG]http://i.imgur.com/UsMN8.png[/IMG]\n\nGreetz\nThe Select Few .... YOU Know Who YOU Are ;)\nThe Rest Of YOU ....................SUCK :P\n","torrent":{"xt":"urn:btih:2665d7f8ba5e9a7d82baa5609dfefedc1cf9bca8","amp;dn":"Tower+Heist+2011+CAM+XviD+-+VISUALiSE","amp;tr":["udp%3A%2F%2Ftracker.openbittorrent.com%3A80","udp%3A%2F%2Fopen.demonii.com%3A1337","udp%3A%2F%2Ftracker.coppersurfer.tk%3A6969","udp%3A%2F%2Fexodus.desync.com%3A6969"],"infoHash":"2665d7f8ba5e9a7d82baa5609dfefedc1cf9bca8","infoHashBuffer":{"type":"Buffer","data":[38,101,215,248,186,94,154,125,130,186,165,96,157,254,254,220,28,249,188,168]},"announce":[],"urlList":[]}}